<svg width="36" height="36" viewBox="0 0 36 36" fill="none" xmlns="http://www.w3.org/2000/svg">
<path d="M18.7827 3.03801C21.0556 5.31086 21.0556 8.99588 18.7827 11.2687C16.5099 13.5416 12.8248 13.5416 10.552 11.2687C8.27914 8.99588 8.27914 5.31086 10.552 3.03801C12.8248 0.765162 16.5099 0.765162 18.7827 3.03801Z" stroke="white" stroke-width="2.42217" stroke-linecap="round" stroke-linejoin="round"/>
<path d="M21.9393 19.3267C19.7743 18.4617 17.2343 17.985 14.6677 17.985C7.921 17.985 1.33434 21.2634 1.33434 26.305V27.9717C1.33434 28.8917 2.081 29.6384 3.001 29.6384H18.6893" stroke="white" stroke-width="2.42217" stroke-linecap="round" stroke-linejoin="round"/>
<path d="M26.3343 34.6667C21.7327 34.6667 18.001 30.9367 18.001 26.3334C18.001 21.8267 21.8343 17.9951 26.341 18.0001C30.941 18.0034 34.6677 21.7334 34.6677 26.3334C34.6677 30.935 30.9377 34.6667 26.3343 34.6667Z" stroke="white" stroke-width="2.42217" stroke-linecap="round" stroke-linejoin="round"/>
<path d="M29.2784 25.2768L26.3318 28.2234L23.3851 25.2768" stroke="white" stroke-width="2.42217" stroke-linecap="round" stroke-linejoin="round"/>
</svg>
  