<svg width="39" height="40" viewBox="0 0 39 40" fill="none" xmlns="http://www.w3.org/2000/svg">
<path d="M33.3307 35.0001C35.1724 35.0001 36.6641 33.5084 36.6641 31.6667V8.33339C36.6641 6.49173 35.1724 5.00006 33.3307 5.00006C31.4891 5.00006 29.9974 6.49173 29.9974 8.33339V31.6667C29.9974 33.5084 31.4891 35.0001 33.3307 35.0001Z" stroke="white" stroke-width="2.42217" stroke-linecap="round" stroke-linejoin="round"/>
<path d="M20.0026 35.0001C21.8443 35.0001 23.3359 33.5084 23.3359 31.6667V17.8067C23.3359 15.9651 21.8443 14.4734 20.0026 14.4734C18.1609 14.4734 16.6693 15.9651 16.6693 17.8067V31.6667C16.6693 33.5084 18.1609 35.0001 20.0026 35.0001Z" stroke="white" stroke-width="2.42217" stroke-linecap="round" stroke-linejoin="round"/>
<path d="M6.66645 35.0001C8.50812 35.0001 9.99979 33.5084 9.99979 31.6667V27.2801C9.99979 25.4384 8.50812 23.9467 6.66645 23.9467C4.82479 23.9467 3.33312 25.4384 3.33312 27.2801V31.6667C3.33312 33.5084 4.82479 35.0001 6.66645 35.0001Z" stroke="white" stroke-width="2.42217" stroke-linecap="round" stroke-linejoin="round"/>
</svg>
